<mxfile host="app.diagrams.net" agent="Mozilla/5.0 (Windows NT 10.0; Win64; x64) AppleWebKit/537.36 (KHTML, like Gecko) Chrome/138.0.0.0 Safari/537.36" version="27.2.0">
  <diagram name="Page-1" id="HXP0LO1Ltw_yJaqMSzdS">
    <mxGraphModel dx="1708" dy="765" grid="1" gridSize="10" guides="1" tooltips="1" connect="1" arrows="1" fold="1" page="1" pageScale="1" pageWidth="850" pageHeight="1100" math="0" shadow="0">
      <root>
        <mxCell id="0" />
        <mxCell id="1" parent="0" />
        <mxCell id="FdvVzxN_NG3IsD2enhDH-5" value="" style="ellipse;whiteSpace=wrap;html=1;fillColor=light-dark(#FFFFFF,#001933);" parent="1" vertex="1">
          <mxGeometry x="150" y="65" width="290" height="230" as="geometry" />
        </mxCell>
        <mxCell id="FdvVzxN_NG3IsD2enhDH-3" value="" style="ellipse;whiteSpace=wrap;html=1;fillColor=light-dark(#FFFFFF,#003366);" parent="1" vertex="1">
          <mxGeometry x="210" y="110" width="170" height="140" as="geometry" />
        </mxCell>
        <mxCell id="FdvVzxN_NG3IsD2enhDH-4" value="&lt;font style=&quot;font-size: 8px;&quot;&gt;TransactionService&lt;br&gt;.Domain&lt;/font&gt;" style="ellipse;whiteSpace=wrap;html=1;fillColor=light-dark(#FFFFFF,#000066);" parent="1" vertex="1">
          <mxGeometry x="253.25" y="145" width="79.5" height="75" as="geometry" />
        </mxCell>
        <mxCell id="FdvVzxN_NG3IsD2enhDH-9" style="edgeStyle=orthogonalEdgeStyle;rounded=0;orthogonalLoop=1;jettySize=auto;html=1;entryX=0;entryY=0.75;entryDx=0;entryDy=0;" parent="1" source="FdvVzxN_NG3IsD2enhDH-6" target="FdvVzxN_NG3IsD2enhDH-10" edge="1">
          <mxGeometry relative="1" as="geometry">
            <mxPoint x="460" y="130" as="targetPoint" />
          </mxGeometry>
        </mxCell>
        <mxCell id="FdvVzxN_NG3IsD2enhDH-11" value="Mediator" style="edgeLabel;html=1;align=center;verticalAlign=middle;resizable=0;points=[];" parent="FdvVzxN_NG3IsD2enhDH-9" vertex="1" connectable="0">
          <mxGeometry x="0.4" relative="1" as="geometry">
            <mxPoint as="offset" />
          </mxGeometry>
        </mxCell>
        <mxCell id="FdvVzxN_NG3IsD2enhDH-6" value="&lt;font style=&quot;font-size: 8px;&quot;&gt;TransactionService&lt;br&gt;.Application&lt;/font&gt;" style="text;html=1;align=center;verticalAlign=middle;whiteSpace=wrap;rounded=0;" parent="1" vertex="1">
          <mxGeometry x="265" y="115" width="60" height="30" as="geometry" />
        </mxCell>
        <mxCell id="FdvVzxN_NG3IsD2enhDH-10" value="CQRS:&lt;br&gt;Commands&lt;br&gt;Queries&lt;div&gt;&lt;br&gt;FluentValidators&lt;/div&gt;" style="shape=parallelogram;perimeter=parallelogramPerimeter;whiteSpace=wrap;html=1;fixedSize=1;fillColor=light-dark(#FFFFFF,#003366);" parent="1" vertex="1">
          <mxGeometry x="489" y="72" width="150" height="80" as="geometry" />
        </mxCell>
        <mxCell id="FdvVzxN_NG3IsD2enhDH-15" value="SQL" style="shape=cylinder3;whiteSpace=wrap;html=1;boundedLbl=1;backgroundOutline=1;size=15;fillColor=light-dark(#FFFFFF,#666600);" parent="1" vertex="1">
          <mxGeometry x="170" y="11" width="40" height="54" as="geometry" />
        </mxCell>
        <mxCell id="FdvVzxN_NG3IsD2enhDH-34" style="edgeStyle=orthogonalEdgeStyle;rounded=0;orthogonalLoop=1;jettySize=auto;html=1;exitX=0.5;exitY=0;exitDx=0;exitDy=0;entryX=0;entryY=0.5;entryDx=0;entryDy=0;" parent="1" source="FdvVzxN_NG3IsD2enhDH-17" target="FdvVzxN_NG3IsD2enhDH-29" edge="1">
          <mxGeometry relative="1" as="geometry" />
        </mxCell>
        <mxCell id="FdvVzxN_NG3IsD2enhDH-17" value="Infrastructure" style="rounded=0;whiteSpace=wrap;html=1;fillColor=light-dark(#FFFFFF,#003366);" parent="1" vertex="1">
          <mxGeometry x="240.5" y="80" width="105" height="20" as="geometry" />
        </mxCell>
        <mxCell id="FdvVzxN_NG3IsD2enhDH-19" style="edgeStyle=orthogonalEdgeStyle;rounded=0;orthogonalLoop=1;jettySize=auto;html=1;entryX=1;entryY=0.5;entryDx=0;entryDy=0;entryPerimeter=0;exitX=0.5;exitY=0;exitDx=0;exitDy=0;" parent="1" source="FdvVzxN_NG3IsD2enhDH-17" target="FdvVzxN_NG3IsD2enhDH-15" edge="1">
          <mxGeometry relative="1" as="geometry" />
        </mxCell>
        <mxCell id="ctedyhC4nob2COHnoGpT-4" style="edgeStyle=orthogonalEdgeStyle;rounded=0;orthogonalLoop=1;jettySize=auto;html=1;" edge="1" parent="1" source="FdvVzxN_NG3IsD2enhDH-29">
          <mxGeometry relative="1" as="geometry">
            <mxPoint x="540" y="38" as="targetPoint" />
          </mxGeometry>
        </mxCell>
        <mxCell id="FdvVzxN_NG3IsD2enhDH-29" value="Masstransit" style="rounded=1;whiteSpace=wrap;html=1;fillColor=light-dark(#FFFFFF,#1A3300);" parent="1" vertex="1">
          <mxGeometry x="373" y="23" width="120" height="30" as="geometry" />
        </mxCell>
        <mxCell id="ctedyhC4nob2COHnoGpT-2" value="&lt;font style=&quot;font-size: 8px;&quot;&gt;TransactionService&lt;br&gt;.Messages&lt;/font&gt;" style="text;html=1;align=center;verticalAlign=middle;whiteSpace=wrap;rounded=0;" vertex="1" parent="1">
          <mxGeometry x="263" y="220" width="60" height="30" as="geometry" />
        </mxCell>
        <mxCell id="ctedyhC4nob2COHnoGpT-6" value="RabbitMQ&lt;div&gt;Kafka&lt;/div&gt;" style="shape=parallelogram;perimeter=parallelogramPerimeter;whiteSpace=wrap;html=1;fixedSize=1;fillColor=light-dark(#FFFFFF,#000066);" vertex="1" parent="1">
          <mxGeometry x="540" width="90" height="53" as="geometry" />
        </mxCell>
        <mxCell id="ctedyhC4nob2COHnoGpT-7" value="&lt;font style=&quot;font-size: 9px;&quot;&gt;Transaction.Controller&lt;/font&gt;" style="rounded=0;whiteSpace=wrap;html=1;fillColor=light-dark(#FFFFFF,#003366);" vertex="1" parent="1">
          <mxGeometry x="242.5" y="260" width="105" height="20" as="geometry" />
        </mxCell>
        <mxCell id="ctedyhC4nob2COHnoGpT-8" value="" style="endArrow=none;dashed=1;html=1;dashPattern=1 3;strokeWidth=2;rounded=0;exitX=1;exitY=0.5;exitDx=0;exitDy=0;entryX=0.5;entryY=0;entryDx=0;entryDy=0;" edge="1" parent="1" source="FdvVzxN_NG3IsD2enhDH-5" target="ctedyhC4nob2COHnoGpT-12">
          <mxGeometry width="50" height="50" relative="1" as="geometry">
            <mxPoint x="520" y="290" as="sourcePoint" />
            <mxPoint x="540" y="490" as="targetPoint" />
          </mxGeometry>
        </mxCell>
        <mxCell id="ctedyhC4nob2COHnoGpT-9" value="Suscribes to" style="edgeLabel;html=1;align=center;verticalAlign=middle;resizable=0;points=[];" vertex="1" connectable="0" parent="ctedyhC4nob2COHnoGpT-8">
          <mxGeometry x="-0.2097" y="1" relative="1" as="geometry">
            <mxPoint as="offset" />
          </mxGeometry>
        </mxCell>
        <mxCell id="ctedyhC4nob2COHnoGpT-11" value="&lt;font style=&quot;font-size: 10px;&quot;&gt;Worker&lt;/font&gt;" style="text;html=1;align=center;verticalAlign=middle;whiteSpace=wrap;rounded=0;" vertex="1" parent="1">
          <mxGeometry x="380" y="165" width="60" height="30" as="geometry" />
        </mxCell>
        <mxCell id="ctedyhC4nob2COHnoGpT-12" value="TransactionValidated" style="rounded=0;whiteSpace=wrap;html=1;fillColor=light-dark(#FFFFFF,#003300);" vertex="1" parent="1">
          <mxGeometry x="525" y="280" width="120" height="50" as="geometry" />
        </mxCell>
        <mxCell id="ctedyhC4nob2COHnoGpT-22" value="" style="endArrow=none;dashed=1;html=1;dashPattern=1 3;strokeWidth=2;rounded=0;exitX=0.5;exitY=0;exitDx=0;exitDy=0;" edge="1" parent="1" source="ctedyhC4nob2COHnoGpT-24" target="ctedyhC4nob2COHnoGpT-11">
          <mxGeometry width="50" height="50" relative="1" as="geometry">
            <mxPoint x="420" y="310" as="sourcePoint" />
            <mxPoint x="470" y="300" as="targetPoint" />
          </mxGeometry>
        </mxCell>
        <mxCell id="ctedyhC4nob2COHnoGpT-23" value="Emit" style="edgeLabel;html=1;align=center;verticalAlign=middle;resizable=0;points=[];" vertex="1" connectable="0" parent="ctedyhC4nob2COHnoGpT-22">
          <mxGeometry x="-0.0557" y="-3" relative="1" as="geometry">
            <mxPoint as="offset" />
          </mxGeometry>
        </mxCell>
        <mxCell id="ctedyhC4nob2COHnoGpT-24" value="TransactionCreated" style="rounded=0;whiteSpace=wrap;html=1;fillColor=light-dark(#FFFFFF,#003300);" vertex="1" parent="1">
          <mxGeometry x="390" y="290" width="120" height="50" as="geometry" />
        </mxCell>
        <mxCell id="ctedyhC4nob2COHnoGpT-29" value="" style="ellipse;whiteSpace=wrap;html=1;fillColor=light-dark(#FFFFFF,#001933);" vertex="1" parent="1">
          <mxGeometry x="148" y="438" width="290" height="230" as="geometry" />
        </mxCell>
        <mxCell id="ctedyhC4nob2COHnoGpT-15" value="&lt;font style=&quot;font-size: 9px;&quot;&gt;Antifraud.worker&lt;/font&gt;" style="rounded=0;whiteSpace=wrap;html=1;fillColor=light-dark(#FFFFFF,#003366);" vertex="1" parent="1">
          <mxGeometry x="242.5" y="634" width="105" height="20" as="geometry" />
        </mxCell>
        <mxCell id="ctedyhC4nob2COHnoGpT-30" value="" style="ellipse;whiteSpace=wrap;html=1;fillColor=light-dark(#FFFFFF,#003366);" vertex="1" parent="1">
          <mxGeometry x="208" y="483" width="170" height="140" as="geometry" />
        </mxCell>
        <mxCell id="ctedyhC4nob2COHnoGpT-31" value="&lt;font style=&quot;font-size: 8px;&quot;&gt;AntifraudService&lt;br&gt;.Domain&lt;/font&gt;" style="ellipse;whiteSpace=wrap;html=1;fillColor=light-dark(#FFFFFF,#000066);" vertex="1" parent="1">
          <mxGeometry x="251.25" y="518" width="79.5" height="75" as="geometry" />
        </mxCell>
        <mxCell id="ctedyhC4nob2COHnoGpT-41" style="edgeStyle=orthogonalEdgeStyle;rounded=0;orthogonalLoop=1;jettySize=auto;html=1;" edge="1" parent="1" source="ctedyhC4nob2COHnoGpT-32">
          <mxGeometry relative="1" as="geometry">
            <mxPoint x="510" y="503" as="targetPoint" />
          </mxGeometry>
        </mxCell>
        <mxCell id="ctedyhC4nob2COHnoGpT-42" value="Mediator" style="edgeLabel;html=1;align=center;verticalAlign=middle;resizable=0;points=[];" vertex="1" connectable="0" parent="ctedyhC4nob2COHnoGpT-41">
          <mxGeometry x="0.2728" y="4" relative="1" as="geometry">
            <mxPoint as="offset" />
          </mxGeometry>
        </mxCell>
        <mxCell id="ctedyhC4nob2COHnoGpT-32" value="&lt;font style=&quot;font-size: 8px;&quot;&gt;AntifraudService&lt;br&gt;.Application&lt;/font&gt;" style="text;html=1;align=center;verticalAlign=middle;whiteSpace=wrap;rounded=0;" vertex="1" parent="1">
          <mxGeometry x="263" y="488" width="60" height="30" as="geometry" />
        </mxCell>
        <mxCell id="ctedyhC4nob2COHnoGpT-33" value="" style="endArrow=none;dashed=1;html=1;dashPattern=1 3;strokeWidth=2;rounded=0;entryX=1;entryY=0.25;entryDx=0;entryDy=0;exitX=0;exitY=0.5;exitDx=0;exitDy=0;" edge="1" parent="1" source="ctedyhC4nob2COHnoGpT-35" target="ctedyhC4nob2COHnoGpT-15">
          <mxGeometry width="50" height="50" relative="1" as="geometry">
            <mxPoint x="490" y="639" as="sourcePoint" />
            <mxPoint x="520" y="388" as="targetPoint" />
          </mxGeometry>
        </mxCell>
        <mxCell id="ctedyhC4nob2COHnoGpT-34" value="Emit" style="edgeLabel;html=1;align=center;verticalAlign=middle;resizable=0;points=[];" vertex="1" connectable="0" parent="ctedyhC4nob2COHnoGpT-33">
          <mxGeometry x="-0.0557" y="-3" relative="1" as="geometry">
            <mxPoint as="offset" />
          </mxGeometry>
        </mxCell>
        <mxCell id="ctedyhC4nob2COHnoGpT-35" value="TransactionValidated" style="rounded=0;whiteSpace=wrap;html=1;fillColor=light-dark(#FFFFFF,#003300);" vertex="1" parent="1">
          <mxGeometry x="483" y="615" width="120" height="50" as="geometry" />
        </mxCell>
        <mxCell id="ctedyhC4nob2COHnoGpT-38" value="TransactionCreated" style="rounded=0;whiteSpace=wrap;html=1;fillColor=light-dark(#FFFFFF,#003300);" vertex="1" parent="1">
          <mxGeometry x="483" y="678" width="120" height="50" as="geometry" />
        </mxCell>
        <mxCell id="ctedyhC4nob2COHnoGpT-39" value="" style="endArrow=none;dashed=1;html=1;dashPattern=1 3;strokeWidth=2;rounded=0;exitX=1;exitY=0.75;exitDx=0;exitDy=0;entryX=0;entryY=0.5;entryDx=0;entryDy=0;" edge="1" parent="1" source="ctedyhC4nob2COHnoGpT-15" target="ctedyhC4nob2COHnoGpT-38">
          <mxGeometry width="50" height="50" relative="1" as="geometry">
            <mxPoint x="380" y="738" as="sourcePoint" />
            <mxPoint x="430" y="688" as="targetPoint" />
          </mxGeometry>
        </mxCell>
        <mxCell id="ctedyhC4nob2COHnoGpT-40" value="Suscribe" style="edgeLabel;html=1;align=center;verticalAlign=middle;resizable=0;points=[];" vertex="1" connectable="0" parent="ctedyhC4nob2COHnoGpT-39">
          <mxGeometry x="0.0372" y="1" relative="1" as="geometry">
            <mxPoint as="offset" />
          </mxGeometry>
        </mxCell>
        <mxCell id="ctedyhC4nob2COHnoGpT-43" value="CQRS:&lt;br&gt;Queries&lt;div&gt;GetTransactionById&lt;br&gt;&lt;br&gt;&lt;/div&gt;" style="shape=parallelogram;perimeter=parallelogramPerimeter;whiteSpace=wrap;html=1;fixedSize=1;fillColor=light-dark(#FFFFFF,#003366);" vertex="1" parent="1">
          <mxGeometry x="500" y="463" width="150" height="80" as="geometry" />
        </mxCell>
        <mxCell id="ctedyhC4nob2COHnoGpT-55" value="SQL" style="shape=cylinder3;whiteSpace=wrap;html=1;boundedLbl=1;backgroundOutline=1;size=15;fillColor=light-dark(#FFFFFF,#666600);" vertex="1" parent="1">
          <mxGeometry x="172" y="385" width="40" height="54" as="geometry" />
        </mxCell>
        <mxCell id="ctedyhC4nob2COHnoGpT-56" style="edgeStyle=orthogonalEdgeStyle;rounded=0;orthogonalLoop=1;jettySize=auto;html=1;exitX=0.5;exitY=0;exitDx=0;exitDy=0;entryX=0;entryY=0.5;entryDx=0;entryDy=0;" edge="1" parent="1" source="ctedyhC4nob2COHnoGpT-57" target="ctedyhC4nob2COHnoGpT-59">
          <mxGeometry relative="1" as="geometry" />
        </mxCell>
        <mxCell id="ctedyhC4nob2COHnoGpT-57" value="Infrastructure" style="rounded=0;whiteSpace=wrap;html=1;fillColor=light-dark(#FFFFFF,#003366);" vertex="1" parent="1">
          <mxGeometry x="242.5" y="454" width="105" height="20" as="geometry" />
        </mxCell>
        <mxCell id="ctedyhC4nob2COHnoGpT-58" style="edgeStyle=orthogonalEdgeStyle;rounded=0;orthogonalLoop=1;jettySize=auto;html=1;entryX=1;entryY=0.5;entryDx=0;entryDy=0;entryPerimeter=0;exitX=0.5;exitY=0;exitDx=0;exitDy=0;" edge="1" parent="1" source="ctedyhC4nob2COHnoGpT-57" target="ctedyhC4nob2COHnoGpT-55">
          <mxGeometry relative="1" as="geometry" />
        </mxCell>
        <mxCell id="ctedyhC4nob2COHnoGpT-59" value="Masstransit" style="rounded=1;whiteSpace=wrap;html=1;fillColor=light-dark(#FFFFFF,#1A3300);" vertex="1" parent="1">
          <mxGeometry x="375" y="397" width="120" height="30" as="geometry" />
        </mxCell>
      </root>
    </mxGraphModel>
  </diagram>
</mxfile>
